<?xml version="1.0" encoding="utf-8"?>
<!-- Generator: Adobe Illustrator 22.0.0, SVG Export Plug-In . SVG Version: 6.00 Build 0)  -->
<svg version="1.1" xmlns="http://www.w3.org/2000/svg" xmlns:xlink="http://www.w3.org/1999/xlink" x="0px" y="0px"
	 viewBox="0 0 565.3 186.3" style="enable-background:new 0 0 565.3 186.3;" xml:space="preserve">
<style type="text/css">
	.st0{fill:#100C1E;}
	.st1{fill:#00AEA3;}
</style>
<g id="bajada">
	<g>
		<path d="M63.3,156.3v11.2h11.3v2.5H63.3v11.3h12.6v2.5H60.3v-29.9h15.6v2.5H63.3z"/>
		<path d="M93.3,181.3H104v2.4H90.3v-29.9h3V181.3z"/>
		<path d="M119.8,156.3v11.2h11.3v2.5h-11.3v11.3h12.6v2.5h-15.6v-29.9h15.6v2.5H119.8z"/>
		<path d="M170.4,162.6c-0.9-2-2.2-3.5-3.9-4.6c-1.8-1.1-3.8-1.7-6.2-1.7c-2.2,0-4.2,0.5-6,1.5c-1.8,1-3.2,2.5-4.2,4.4
			c-1,1.9-1.5,4.1-1.5,6.6s0.5,4.7,1.5,6.6c1,1.9,2.4,3.4,4.2,4.4c1.8,1,3.8,1.5,6,1.5c2.1,0,4-0.4,5.6-1.3s3-2.2,4-3.8
			c1-1.7,1.6-3.6,1.7-5.8h-12.6v-2.4h15.7v2.2c-0.1,2.6-0.9,5-2.1,7.1c-1.3,2.1-3,3.8-5.1,5s-4.6,1.8-7.2,1.8
			c-2.8,0-5.3-0.6-7.5-1.9c-2.3-1.3-4-3.1-5.3-5.4c-1.3-2.3-1.9-4.9-1.9-7.9s0.6-5.6,1.9-7.9c1.3-2.3,3.1-4.1,5.3-5.4
			c2.3-1.3,4.8-1.9,7.5-1.9c3.2,0,6,0.8,8.4,2.4c2.4,1.6,4.1,3.8,5.2,6.7H170.4z"/>
		<path d="M194.3,147.4l-8.8,5.1v-2.3l8.8-5.5V147.4z M191.8,153.9v29.9h-3v-29.9H191.8z"/>
		<path d="M230.4,156.3v11.2h11.3v2.5h-11.3v11.3H243v2.5h-15.6v-29.9H243v2.5H230.4z"/>
		<path d="M260.5,181.3h10.7v2.4h-13.7v-29.9h3V181.3z"/>
		<path d="M320.4,153.9v2.5h-13.2v11.2h11.1v2.5h-11.1v13.8h-3v-29.9H320.4z"/>
		<path d="M336.7,153.9v18.8c0,3,0.7,5.2,2.1,6.6c1.4,1.4,3.3,2.1,5.8,2.1c2.4,0,4.4-0.7,5.7-2.1s2.1-3.6,2.1-6.6v-18.8h3v18.8
			c0,3.8-1,6.6-3,8.5c-2,1.9-4.6,2.9-7.8,2.9c-3.2,0-5.8-1-7.8-2.9c-2-1.9-3-4.8-3-8.5v-18.8H336.7z"/>
		<path d="M388.2,153.9v2.5h-8.3v27.4h-3v-27.4h-8.3v-2.5H388.2z"/>
		<path d="M404.3,153.9v18.8c0,3,0.7,5.2,2.1,6.6c1.4,1.4,3.3,2.1,5.8,2.1c2.4,0,4.4-0.7,5.7-2.1s2.1-3.6,2.1-6.6v-18.8h3v18.8
			c0,3.8-1,6.6-3,8.5c-2,1.9-4.6,2.9-7.8,2.9c-3.2,0-5.8-1-7.8-2.9c-2-1.9-3-4.8-3-8.5v-18.8H404.3z"/>
		<path d="M454.1,183.7l-7.4-12.5h-5.5v12.5h-3v-29.9h9c3.3,0,5.9,0.8,7.6,2.4c1.7,1.6,2.6,3.7,2.6,6.3c0,2.2-0.6,4-1.9,5.5
			s-3.1,2.5-5.5,3l7.7,12.7H454.1z M441.2,168.8h6c2.3,0,4.1-0.6,5.3-1.7c1.2-1.1,1.8-2.7,1.8-4.6c0-2-0.6-3.5-1.7-4.6
			s-2.9-1.6-5.4-1.6h-6V168.8z"/>
		<path d="M477.8,182.1c-2.3-1.3-4-3.1-5.3-5.4c-1.3-2.3-1.9-4.9-1.9-7.9s0.6-5.6,1.9-7.9c1.3-2.3,3.1-4.1,5.3-5.4
			c2.3-1.3,4.8-1.9,7.5-1.9c2.8,0,5.3,0.6,7.6,1.9c2.3,1.3,4,3.1,5.3,5.4c1.3,2.3,1.9,5,1.9,7.9s-0.6,5.6-1.9,7.9
			c-1.3,2.3-3,4.1-5.3,5.4c-2.3,1.3-4.8,1.9-7.6,1.9C482.5,184,480,183.4,477.8,182.1z M491.3,179.9c1.8-1,3.2-2.5,4.2-4.4
			s1.5-4.2,1.5-6.7s-0.5-4.8-1.5-6.7c-1-1.9-2.4-3.4-4.2-4.4c-1.8-1-3.8-1.5-6-1.5c-2.2,0-4.2,0.5-6,1.5c-1.8,1-3.2,2.5-4.2,4.4
			c-1,1.9-1.5,4.1-1.5,6.7s0.5,4.8,1.5,6.7s2.4,3.4,4.2,4.4c1.8,1,3.8,1.5,6,1.5C487.5,181.4,489.5,180.9,491.3,179.9z"/>
	</g>
</g>
<g id="experto">
	<path class="st0" d="M194.1,63.9c0-16.1,11.1-27.9,27.3-27.9c16.7,0,26.6,10,26.5,27.3l0,2.2l-41.5,0c0.6,9.8,6,15.5,14.7,15.5
		c7.6,0,12.4-3,16.3-10.2l10,5.6c-5.8,10.4-14.4,15.5-26,15.4C204.7,91.8,194.1,80.8,194.1,63.9z M235.6,57.5
		c-0.9-7.5-5.8-11.4-14-11.4c-7.7,0-12.4,3.7-14.4,11.4L235.6,57.5z"/>
	<path class="st0" d="M268.3,61.8l-16.8-24l13.1,0l7.3,10.8c1.2,1.8,2.5,3.8,3.6,6.3c1.1-2.2,2.4-4.3,3.7-6.4l7.2-10.6l13,0
		l-16.8,24.1L302,89.7l-13,0L279.4,76c-1.6-2.4-3.1-4.6-4-7.1c-2,3.9-3.5,6.2-4.2,7.2l-9.4,13.6l-13.1,0L268.3,61.8z"/>
	<path class="st0" d="M309,37.8l11.9,0l0,8.5c2.8-6.6,9.1-10.3,17.6-10.3c13.7,0,23.2,11,23.2,27.7c0,17.7-9.2,28.1-23.7,28.1
		c-7.3,0-12.9-2.9-17.1-8.9l0,31.2l-11.9,0L309,37.8z M349.3,64.1c0-11-5.5-17.5-14.4-17.5c-8.9,0-14.2,6.2-14.3,17
		c0,11.1,6.1,17.7,14.6,17.7C344.1,81.4,349.3,75.2,349.3,64.1z"/>
	<path class="st0" d="M368.5,64c0-16.1,11.1-27.9,27.3-27.9c16.7,0,26.6,10,26.5,27.3l0,2.2l-41.5,0c0.6,9.8,6,15.5,14.7,15.5
		c7.6,0,12.4-3,16.3-10.2l10,5.6c-5.8,10.4-14.4,15.5-26,15.4C379.1,91.9,368.4,80.9,368.5,64z M409.9,57.7
		c-0.9-7.5-5.8-11.4-14-11.4c-7.7,0-12.4,3.7-14.4,11.4L409.9,57.7z"/>
	<path class="st0" d="M433.6,37.8l11.9,0l0,8.4c2.6-6.8,6.6-10.1,12.9-10.1c3.4,0,6.6,0.8,9.8,2.4l-4.3,10.1
		c-2.2-1.6-4.6-2.1-7.3-2.1c-8.4,0-11.1,6.6-11.1,20.6l0,22.8l-11.9,0L433.6,37.8z"/>
	<path class="st0" d="M482.3,48.4l-9.1,0l0-10.4l9.1,0l0-19.6l11.9,0l0,19.6l9.1,0l0,10.4l-9.1,0l0,41.5l-11.9,0L482.3,48.4z"/>
	<path class="st0" d="M515.1,83.9c-5.5-5.4-8.4-12.2-8.4-19.9c0-7.5,2.9-14.5,8.4-19.7c5.4-5.3,12.6-8.1,20.1-8.1
		c7.7,0,14.8,2.8,20.3,8.2c5.4,5.3,8.4,12.1,8.4,19.6c0,7.7-2.9,14.6-8.3,19.7c-5.6,5.4-12.7,8.3-20.4,8.3
		C527.6,92.1,520.4,89.2,515.1,83.9z M551.3,64.2c0-9.8-7.2-17.3-16-17.3c-8.9,0-16,7.5-16,17.3s7.2,17.3,16,17.3
		C544,81.4,551.3,73.9,551.3,64.2z"/>
</g>
<g id="info">
	<path class="st1" d="M1.4,15.1c0-4,3.4-7.4,7.5-7.4c4.1,0,7.4,3.1,7.4,7.4s-3.3,7.5-7.4,7.5C4.8,22.7,1.4,19.2,1.4,15.1z M3,37.6
		l11.9,0l0,51.9l-11.9,0L3,37.6z"/>
	<path class="st1" d="M31.8,37.6l11.2,0l0,8.5c4.8-7.3,11-10.3,20.1-10.3c7.7,0,13.2,2.5,16.2,7.3c2.6,3.9,2.6,8.6,2.6,14.9l0,31.5
		l-12,0l0-26.7c0-11.5-1.4-16.9-11.3-16.9c-5.6,0-10.1,2.1-12.6,5.8c-2.1,3.1-2.4,7.6-2.4,14.1l0,23.7l-11.9,0L31.8,37.6z"/>
	<path class="st1" d="M99.4,48.1l-9.1,0l0-10.4l9.1,0l0-13.9c0-13.7,5.5-20.2,17.6-20.2c2.5,0,5.2,0.3,8.1,1.1l0,10.8
		c-1.9-1.1-3.8-1.7-5.8-1.7c-5.9,0-8,3.6-8,11.5l0,12.3l12.4,0l0,10.4l-12.4,0l0,41.5l-11.9,0L99.4,48.1z"/>
	<path class="st1" d="M136.6,83.5c-5.5-5.4-8.4-12.2-8.4-19.9c0-7.5,2.9-14.5,8.4-19.7c5.4-5.3,12.6-8.1,20.1-8.1
		c7.7,0,14.8,2.8,20.3,8.2c5.4,5.3,8.4,12.1,8.4,19.6c0,7.7-2.9,14.6-8.3,19.7c-5.6,5.4-12.7,8.3-20.4,8.3
		C149.1,91.7,141.9,88.8,136.6,83.5z M172.8,63.8c0-9.8-7.2-17.3-16-17.3c-8.9,0-16,7.5-16,17.3s7.2,17.3,16,17.3
		C165.5,81.1,172.8,73.6,172.8,63.8z"/>
</g>
</svg>
